<?xml version="1.0" standalone="no"?>
<!DOCTYPE svg PUBLIC "-//W3C//DTD SVG 20010904//EN"
 "http://www.w3.org/TR/2001/REC-SVG-20010904/DTD/svg10.dtd">
<svg version="1.0" xmlns="http://www.w3.org/2000/svg"
 width="700.000000pt" height="700.000000pt" viewBox="0 0 700.000000 700.000000"
 preserveAspectRatio="xMidYMid meet">
<metadata>
Created by potrace 1.11, written by Peter Selinger 2001-2013
</metadata>
<g transform="translate(0.000000,700.000000) scale(0.100000,-0.100000)"
fill="#000000" stroke="none">
<path d="M2581 6849 c-73 -22 -133 -74 -173 -149 -18 -36 -23 -60 -22 -120 1
-92 27 -153 90 -209 75 -66 106 -71 445 -71 l299 0 0 -284 c0 -157 -3 -287 -7
-289 -5 -3 -39 -8 -78 -12 -38 -4 -72 -8 -76 -10 -3 -2 -28 -7 -55 -11 -142
-19 -418 -102 -599 -179 -245 -105 -533 -282 -705 -435 -19 -17 -54 -48 -78
-67 l-43 -36 -213 213 c-239 239 -272 263 -373 266 -88 4 -146 -19 -208 -81
-62 -62 -85 -120 -81 -207 4 -103 26 -133 279 -387 l228 -229 -47 -73 c-100
-157 -226 -394 -249 -469 -4 -14 -11 -29 -15 -35 -11 -15 -95 -277 -119 -370
-21 -85 -47 -224 -55 -290 -3 -22 -8 -67 -13 -100 -10 -77 -10 -470 0 -555 33
-289 105 -577 193 -777 8 -17 14 -34 14 -37 0 -26 153 -313 235 -441 228 -354
570 -677 950 -897 189 -110 524 -249 659 -274 16 -2 33 -7 37 -9 12 -8 230
-53 288 -60 30 -4 62 -8 72 -10 119 -23 532 -23 669 -1 14 2 50 7 80 11 30 4
62 9 70 10 8 2 29 6 45 10 68 12 134 28 199 47 38 11 76 21 86 23 51 10 262
91 377 146 46 21 86 39 88 39 8 0 188 107 275 164 147 96 293 217 430 355 144
145 150 152 251 286 216 287 356 567 459 915 17 57 32 115 35 130 2 14 13 68
24 120 10 52 22 122 26 155 3 33 10 89 15 125 8 64 6 472 -3 520 -2 14 -7 54
-11 90 -17 147 -97 479 -136 565 -5 11 -18 45 -28 75 -47 129 -157 352 -227
460 -23 36 -54 85 -69 109 l-28 43 229 229 c263 263 278 285 278 399 0 60 -5
85 -25 124 -69 136 -239 193 -373 126 -28 -14 -121 -99 -258 -236 -118 -118
-217 -214 -221 -214 -4 0 -26 18 -50 39 -77 71 -102 91 -193 160 -281 213
-678 403 -991 476 -95 22 -273 55 -325 61 -35 3 -67 8 -71 11 -5 2 -8 132 -8
289 l0 284 298 1 c163 0 307 2 319 5 48 9 115 48 151 89 52 59 72 119 67 203
-5 104 -60 187 -154 234 l-46 23 -900 2 c-564 1 -913 -2 -934 -8z m1139 -1680
c47 -4 94 -10 105 -13 11 -2 40 -7 65 -11 25 -4 97 -20 160 -35 781 -195 1418
-825 1614 -1599 58 -228 71 -335 71 -576 -1 -272 -29 -456 -110 -698 -189
-571 -610 -1053 -1145 -1309 -338 -162 -649 -230 -1020 -223 -96 2 -191 6
-210 8 -142 19 -208 32 -320 62 -142 39 -189 55 -299 102 -375 160 -681 401
-933 734 -197 260 -352 625 -408 959 -39 231 -34 588 11 790 5 25 11 54 13 65
26 135 92 325 168 484 72 150 141 260 280 446 52 69 300 307 388 371 345 254
702 395 1105 440 27 3 51 6 52 8 7 6 339 3 413 -5z"/>
<path d="M3415 4606 c-89 -33 -152 -95 -178 -177 -15 -46 -17 -131 -17 -789 0
-847 -4 -807 85 -895 87 -88 66 -85 762 -85 674 1 654 -1 738 72 146 128 114
369 -61 458 l-49 25 -457 3 -457 3 -3 597 -3 597 -25 49 c-62 121 -215 186
-335 142z"/>
</g>
</svg>
