<svg xmlns="http://www.w3.org/2000/svg" viewBox="0 0 78.94 62.8"><path d="M65.37 9.78H60.3v9h5.07a4.58 4.58 0 014.57 4.57V49a4.58 4.58 0 01-4.57 4.57h-51.8A4.58 4.58 0 019 49V23.35a4.58 4.58 0 014.57-4.57h19.58v5.28a4.52 4.52 0 00.09.88c0 .13.08.26.11.39a4.42 4.42 0 00.14.45 4.44 4.44 0 00.23.44c.06.11.11.23.18.33a4.52 4.52 0 001.25 1.25c.11.07.22.12.34.18a2.65 2.65 0 00.89.37c.13 0 .25.09.39.11a4.41 4.41 0 001.76 0c.13 0 .26-.08.39-.11a2.64 2.64 0 00.88-.35c.11-.06.23-.11.34-.18a4.51 4.51 0 00.69-.57l9.77-9.77a4.5 4.5 0 000-6.36l-9.77-9.8a4.51 4.51 0 00-.69-.56C40 .68 39.91.63 39.8.57a4.42 4.42 0 00-.43-.23 4.45 4.45 0 00-.46-.14c-.13 0-.25-.09-.38-.11a4.52 4.52 0 00-1.76 0c-.13 0-.25.08-.38.11a4.45 4.45 0 00-.46.14 4.42 4.42 0 00-.43.23c-.11.06-.23.11-.34.19A4.52 4.52 0 0033.9 2c-.07.11-.12.22-.18.33a4.43 4.43 0 00-.23.44 4.42 4.42 0 00-.14.45c0 .13-.09.25-.11.39a4.52 4.52 0 00-.09.88v5.29H13.57A13.59 13.59 0 000 23.35V49a13.59 13.59 0 0013.57 13.57h51.8A13.59 13.59 0 0078.94 49V23.35A13.59 13.59 0 0065.37 9.78z"/></svg>