<svg xmlns="http://www.w3.org/2000/svg" viewBox="0 0 100 100"><path d="M50 66.161c8.532 0 15.449-6.917 15.449-15.449V15.699C65.449 7.167 58.532.25 50 .25S34.551 7.167 34.551 15.699v35.013c0 8.532 6.917 15.449 15.449 15.449z"/><path d="M73.055 37.881a3.169 3.169 0 00-3.17 3.168v9.663c0 10.964-8.92 19.885-19.885 19.885-10.966 0-19.886-8.921-19.886-19.885v-9.663a3.168 3.168 0 10-6.337 0v9.663c0 14.459 11.764 26.223 26.223 26.223s26.223-11.764 26.223-26.223v-9.663a3.168 3.168 0 00-3.168-3.168zM63.07 93.412h-9.902V79.26c-1.041.126-2.094.21-3.168.21-1.075 0-2.128-.084-3.169-.21v14.152H36.93a3.168 3.168 0 00-3.168 3.169v3.169h32.477v-3.169a3.17 3.17 0 00-3.169-3.169z"/></svg>