<svg xmlns="http://www.w3.org/2000/svg" viewBox="0 0 12.7 15.875"><path d="M6.35.529a5.824 5.824 0 00-5.82 5.82 5.826 5.826 0 005.82 5.822c3.211 0 5.82-2.61 5.82-5.822A5.824 5.824 0 006.35.529zm0 .529a5.289 5.289 0 013.92 8.84L8.51 8.135c.309-.439.486-.967.486-1.521v-.793c0-.353-.53-.353-.53 0v.793c0 .412-.122.805-.337 1.14l-.385-.385c.123-.229.193-.487.193-.755v-2.91a1.588 1.588 0 10-3.176 0v.683l-1.959-1.96a5.266 5.266 0 013.547-1.37zM2.427 2.803l2.333 2.333v1.479A1.59 1.59 0 007.145 7.99c.098-.057.187-.127.269-.201l.375.374c-.116.107-.241.205-.38.286a2.117 2.117 0 01-3.177-1.834v-.793a.265.265 0 00-.267-.27.265.265 0 00-.26.27v.793c0 .944.504 1.818 1.323 2.29.33.191.69.301 1.058.338v.811H4.47c-.353.018-.326.548.027.53H8.2c.353 0 .353-.53 0-.53H6.615v-.811a2.638 2.638 0 001.059-.337c.18-.104.341-.23.488-.37l1.735 1.735a5.288 5.288 0 01-7.468-7.468z" style="line-height:normal;font-variant-ligatures:normal;font-variant-position:normal;font-variant-caps:normal;font-variant-numeric:normal;font-variant-alternates:normal;font-feature-settings:normal;text-indent:0;text-align:start;text-decoration-line:none;text-decoration-style:solid;text-decoration-color:#000;text-transform:none;text-orientation:mixed;white-space:normal;shape-padding:0;isolation:auto;mix-blend-mode:normal;solid-color:#000;solid-opacity:1" color="#000" font-weight="400" font-family="sans-serif" overflow="visible"/></svg>